<svg width="46" height="46" viewBox="0 0 46 46" fill="none" xmlns="http://www.w3.org/2000/svg">
<path d="M16.2747 23.1166C16.2747 23.2628 16.2727 23.4091 16.2658 23.5546C16.1965 25.4558 15.6733 27.2422 14.8006 28.807C14.3029 29.7029 13.6891 30.5248 12.9826 31.2553L12.7004 31.5368L6.07489 38.1589C5.80507 38.4287 5.36016 38.4122 5.11437 38.1197C4.21426 37.05 3.4089 35.8973 2.71202 34.6765C2.4676 34.2508 2.23691 33.8162 2.02132 33.3741C1.54277 32.3998 1.13082 31.3871 0.790965 30.3421C0.69965 30.0607 0.545863 29.5134 0.429144 29.0891C0.338515 28.7596 0.517712 28.4163 0.839718 28.3009L10.0323 25.015C10.7841 24.7397 11.321 24.0167 11.321 23.1708C11.321 22.325 10.8095 21.6356 10.0852 21.3459C10.044 21.3294 10.0008 21.3136 9.9575 21.3013C9.95201 21.2992 9.9472 21.2965 9.94102 21.2958L0.822553 18.0373C0.499174 17.9219 0.320657 17.5766 0.413346 17.2456C0.593916 16.6009 0.885033 15.5972 1.07247 15.0856C1.33955 14.3572 1.64233 13.6459 1.97738 12.9538C2.20807 12.4787 2.45455 12.0118 2.71545 11.5553C3.4137 10.3359 4.21837 9.18449 5.11779 8.11548C5.36359 7.823 5.80849 7.80653 6.07832 8.07635L12.7093 14.7053L12.973 14.9689C13.7213 15.7393 14.3619 16.6105 14.8762 17.5628C15.7186 19.1234 16.2177 20.8989 16.2699 22.785C16.2734 22.8941 16.2747 23.0054 16.2747 23.1159V23.1166Z" fill="#663399"/>
<path d="M22.9627 29.8547C23.109 29.8547 23.2552 29.8567 23.4008 29.8636C25.3019 29.9329 27.0884 30.4561 28.6531 31.3287C29.5491 31.8265 30.3709 32.4403 31.1014 33.1468L31.3829 33.429L38.005 40.0545C38.2748 40.3243 38.2584 40.7692 37.9659 41.015C36.8962 41.9151 35.7434 42.7205 34.5227 43.4174C34.097 43.6618 33.6624 43.8925 33.2202 44.1081C32.1842 44.6168 31.1056 45.0501 29.9906 45.4016C29.7578 45.475 29.306 45.6007 28.9353 45.7016C28.6057 45.7916 28.2631 45.6124 28.1478 45.291L24.8618 36.0977C24.5865 35.3459 23.8635 34.809 23.0177 34.809C22.1718 34.809 21.4825 35.3205 21.1927 36.0449C21.1762 36.0861 21.1604 36.1293 21.1481 36.1726C21.146 36.1781 21.1433 36.1829 21.1426 36.189L17.882 45.3144C17.7674 45.6343 17.4275 45.8135 17.0993 45.7263C16.7059 45.622 16.2191 45.4888 15.972 45.4112C14.8776 45.0679 13.8188 44.6463 12.8013 44.1527C12.3262 43.922 11.8593 43.6755 11.4028 43.4146C10.1834 42.7164 9.03201 41.9117 7.96301 41.0123C7.67052 40.7665 7.65404 40.3216 7.92387 40.0518L14.5528 33.4208L14.8164 33.1571C15.5868 32.4087 16.4581 31.7682 17.4103 31.2539C18.9709 30.4115 20.7464 29.9123 22.6325 29.8602C22.7416 29.8567 22.8529 29.8553 22.9634 29.8553L22.9627 29.8547Z" fill="#663399"/>
<path d="M22.9627 16.4039C23.109 16.4039 23.2552 16.4018 23.4008 16.3949C25.3019 16.3256 27.0884 15.8024 28.6531 14.9298C29.5491 14.432 30.3709 13.8182 31.1014 13.1117L31.3829 12.8295L38.005 6.20404C38.2748 5.93421 38.2584 5.48931 37.9659 5.24351C36.8962 4.34341 35.7434 3.53805 34.5227 2.84117C34.097 2.59675 29.4022 0.689426 28.936 0.560349C28.6057 0.469034 28.2618 0.647544 28.1464 0.970236L24.8611 10.1615C24.5858 10.9133 23.8628 11.4502 23.017 11.4502C22.1711 11.4502 21.4818 10.9387 21.192 10.2144C21.1756 10.1732 21.1598 10.1299 21.1474 10.0866C21.1454 10.0812 21.1426 10.0764 21.1419 10.0702L17.8807 0.94346C17.7667 0.6242 17.4268 0.445003 17.0986 0.531512C16.7643 0.619394 13.8827 1.58198 12.8006 2.10653C12.3255 2.33722 9.03133 4.34752 7.96301 5.24694C7.67052 5.49274 7.65404 5.93765 7.92387 6.20747L14.5528 12.8385L14.8164 13.1021C15.5868 13.8505 16.4581 14.4911 17.4103 15.0053C18.9709 15.8477 20.7464 16.3469 22.6325 16.3991C22.7416 16.4025 22.8529 16.4039 22.9634 16.4039H22.9627Z" fill="#663399"/>
<path d="M29.6659 23.1165C29.6659 23.2628 29.668 23.409 29.6748 23.5546C29.7442 25.4557 30.2673 27.2422 31.14 28.8069C31.6378 29.7029 32.2516 30.5248 32.958 31.2553L33.2402 31.5368L39.8657 38.1588C40.1356 38.4287 40.5805 38.4122 40.8263 38.1197C41.7264 37.05 42.5317 35.8972 43.2286 34.6765C43.473 34.2508 43.7037 33.8162 43.9193 33.3741C44.3683 32.4595 44.7583 31.5121 45.0858 30.5351C45.1963 30.2055 45.3783 29.5642 45.5094 29.0905C45.6007 28.7602 45.4222 28.4163 45.0995 28.3009L35.9083 25.0156C35.1565 24.7403 34.6196 24.0173 34.6196 23.1715C34.6196 22.3256 35.1311 21.6363 35.8554 21.3465C35.8966 21.3301 35.9399 21.3143 35.9831 21.3019C35.9886 21.2999 35.9934 21.2971 35.9996 21.2964L45.1236 18.0365C45.4442 17.9219 45.6234 17.5807 45.5348 17.2518C45.4133 16.8007 44.4233 13.9047 43.9633 12.9552C43.7326 12.48 41.7222 9.18583 40.8228 8.11752C40.577 7.82503 40.1321 7.80855 39.8623 8.07838L33.2313 14.7073L32.9677 14.971C32.2193 15.7413 31.5787 16.6126 31.0645 17.5649C30.222 19.1255 29.7229 20.901 29.6707 22.787C29.6673 22.8962 29.6659 23.0074 29.6659 23.1179V23.1165Z" fill="#663399"/>
</svg>
